<svg id="visual" viewBox="0 0 960 1620" width="960" height="1620" xmlns="http://www.w3.org/2000/svg" xmlns:xlink="http://www.w3.org/1999/xlink" version="1.1"><path d="M0 503L87 503L87 244L175 244L175 487L262 487L262 633L349 633L349 390L436 390L436 455L524 455L524 260L611 260L611 552L698 552L698 406L785 406L785 422L873 422L873 519L960 519L960 536L960 0L960 0L873 0L873 0L785 0L785 0L698 0L698 0L611 0L611 0L524 0L524 0L436 0L436 0L349 0L349 0L262 0L262 0L175 0L175 0L87 0L87 0L0 0Z" fill="#783e3e"></path><path d="M0 681L87 681L87 390L175 390L175 600L262 600L262 779L349 779L349 600L436 600L436 633L524 633L524 471L611 471L611 698L698 698L698 568L785 568L785 633L873 633L873 649L960 649L960 698L960 534L960 517L873 517L873 420L785 420L785 404L698 404L698 550L611 550L611 258L524 258L524 453L436 453L436 388L349 388L349 631L262 631L262 485L175 485L175 242L87 242L87 501L0 501Z" fill="#673a39"></path><path d="M0 1054L87 1054L87 649L175 649L175 892L262 892L262 941L349 941L349 811L436 811L436 924L524 924L524 714L611 714L611 892L698 892L698 795L785 795L785 957L873 957L873 957L960 957L960 892L960 696L960 647L873 647L873 631L785 631L785 566L698 566L698 696L611 696L611 469L524 469L524 631L436 631L436 598L349 598L349 777L262 777L262 598L175 598L175 388L87 388L87 679L0 679Z" fill="#573534"></path><path d="M0 1313L87 1313L87 1151L175 1151L175 1265L262 1265L262 1281L349 1281L349 1378L436 1378L436 1248L524 1248L524 1346L611 1346L611 1281L698 1281L698 1297L785 1297L785 1313L873 1313L873 1232L960 1232L960 1313L960 890L960 955L873 955L873 955L785 955L785 793L698 793L698 890L611 890L611 712L524 712L524 922L436 922L436 809L349 809L349 939L262 939L262 890L175 890L175 647L87 647L87 1052L0 1052Z" fill="#473030"></path><path d="M0 1427L87 1427L87 1362L175 1362L175 1459L262 1459L262 1475L349 1475L349 1491L436 1491L436 1394L524 1394L524 1459L611 1459L611 1491L698 1491L698 1427L785 1427L785 1410L873 1410L873 1362L960 1362L960 1443L960 1311L960 1230L873 1230L873 1311L785 1311L785 1295L698 1295L698 1279L611 1279L611 1344L524 1344L524 1246L436 1246L436 1376L349 1376L349 1279L262 1279L262 1263L175 1263L175 1149L87 1149L87 1311L0 1311Z" fill="#362b2b"></path><path d="M0 1621L87 1621L87 1621L175 1621L175 1621L262 1621L262 1621L349 1621L349 1621L436 1621L436 1621L524 1621L524 1621L611 1621L611 1621L698 1621L698 1621L785 1621L785 1621L873 1621L873 1621L960 1621L960 1621L960 1441L960 1360L873 1360L873 1408L785 1408L785 1425L698 1425L698 1489L611 1489L611 1457L524 1457L524 1392L436 1392L436 1489L349 1489L349 1473L262 1473L262 1457L175 1457L175 1360L87 1360L87 1425L0 1425Z" fill="#262626"></path></svg>