<svg id="visual" viewBox="0 0 960 1620" width="960" height="1620" xmlns="http://www.w3.org/2000/svg" xmlns:xlink="http://www.w3.org/1999/xlink" version="1.1"><path d="M0 131L12.3 131C24.7 131 49.3 131 74 128.2C98.7 125.3 123.3 119.7 148 119.7C172.7 119.7 197.3 125.3 221.8 130.8C246.3 136.3 270.7 141.7 295.2 141.7C319.7 141.7 344.3 136.3 369 133.7C393.7 131 418.3 131 443 128.2C467.7 125.3 492.3 119.7 517 122.3C541.7 125 566.3 136 591 144.2C615.7 152.3 640.3 157.7 664.8 155C689.3 152.3 713.7 141.7 738.2 136.3C762.7 131 787.3 131 812 131C836.7 131 861.3 131 886 131C910.7 131 935.3 131 947.7 131L960 131L960 0L947.7 0C935.3 0 910.7 0 886 0C861.3 0 836.7 0 812 0C787.3 0 762.7 0 738.2 0C713.7 0 689.3 0 664.8 0C640.3 0 615.7 0 591 0C566.3 0 541.7 0 517 0C492.3 0 467.7 0 443 0C418.3 0 393.7 0 369 0C344.3 0 319.7 0 295.2 0C270.7 0 246.3 0 221.8 0C197.3 0 172.7 0 148 0C123.3 0 98.7 0 74 0C49.3 0 24.7 0 12.3 0L0 0Z" fill="#000000"></path><path d="M0 195L12.3 197.8C24.7 200.7 49.3 206.3 74 206.3C98.7 206.3 123.3 200.7 148 197.8C172.7 195 197.3 195 221.8 203.2C246.3 211.3 270.7 227.7 295.2 233.2C319.7 238.7 344.3 233.3 369 228C393.7 222.7 418.3 217.3 443 209.2C467.7 201 492.3 190 517 195.3C541.7 200.7 566.3 222.3 591 230.5C615.7 238.7 640.3 233.3 664.8 225.2C689.3 217 713.7 206 738.2 206C762.7 206 787.3 217 812 219.8C836.7 222.7 861.3 217.3 886 214.7C910.7 212 935.3 212 947.7 212L960 212L960 129L947.7 129C935.3 129 910.7 129 886 129C861.3 129 836.7 129 812 129C787.3 129 762.7 129 738.2 134.3C713.7 139.7 689.3 150.3 664.8 153C640.3 155.7 615.7 150.3 591 142.2C566.3 134 541.7 123 517 120.3C492.3 117.7 467.7 123.3 443 126.2C418.3 129 393.7 129 369 131.7C344.3 134.3 319.7 139.7 295.2 139.7C270.7 139.7 246.3 134.3 221.8 128.8C197.3 123.3 172.7 117.7 148 117.7C123.3 117.7 98.7 123.3 74 126.2C49.3 129 24.7 129 12.3 129L0 129Z" fill="#0f0f0f"></path><path d="M0 422L12.3 416.7C24.7 411.3 49.3 400.7 74 395.3C98.7 390 123.3 390 148 384.5C172.7 379 197.3 368 221.8 373.3C246.3 378.7 270.7 400.3 295.2 416.7C319.7 433 344.3 444 369 444C393.7 444 418.3 433 443 419.5C467.7 406 492.3 390 517 395.5C541.7 401 566.3 428 591 438.7C615.7 449.3 640.3 443.7 664.8 435.5C689.3 427.3 713.7 416.7 738.2 414C762.7 411.3 787.3 416.7 812 414C836.7 411.3 861.3 400.7 886 400.7C910.7 400.7 935.3 411.3 947.7 416.7L960 422L960 210L947.7 210C935.3 210 910.7 210 886 212.7C861.3 215.3 836.7 220.7 812 217.8C787.3 215 762.7 204 738.2 204C713.7 204 689.3 215 664.8 223.2C640.3 231.3 615.7 236.7 591 228.5C566.3 220.3 541.7 198.7 517 193.3C492.3 188 467.7 199 443 207.2C418.3 215.3 393.7 220.7 369 226C344.3 231.3 319.7 236.7 295.2 231.2C270.7 225.7 246.3 209.3 221.8 201.2C197.3 193 172.7 193 148 195.8C123.3 198.7 98.7 204.3 74 204.3C49.3 204.3 24.7 198.7 12.3 195.8L0 193Z" fill="#191919"></path><path d="M0 519L12.3 516.3C24.7 513.7 49.3 508.3 74 505.7C98.7 503 123.3 503 148 497.7C172.7 492.3 197.3 481.7 221.8 487.2C246.3 492.7 270.7 514.3 295.2 533.2C319.7 552 344.3 568 369 565.2C393.7 562.3 418.3 540.7 443 527.2C467.7 513.7 492.3 508.3 517 513.8C541.7 519.3 566.3 535.7 591 541.2C615.7 546.7 640.3 541.3 664.8 535.8C689.3 530.3 713.7 524.7 738.2 527.3C762.7 530 787.3 541 812 538.3C836.7 535.7 861.3 519.3 886 513.8C910.7 508.3 935.3 513.7 947.7 516.3L960 519L960 420L947.7 414.7C935.3 409.3 910.7 398.7 886 398.7C861.3 398.7 836.7 409.3 812 412C787.3 414.7 762.7 409.3 738.2 412C713.7 414.7 689.3 425.3 664.8 433.5C640.3 441.7 615.7 447.3 591 436.7C566.3 426 541.7 399 517 393.5C492.3 388 467.7 404 443 417.5C418.3 431 393.7 442 369 442C344.3 442 319.7 431 295.2 414.7C270.7 398.3 246.3 376.7 221.8 371.3C197.3 366 172.7 377 148 382.5C123.3 388 98.7 388 74 393.3C49.3 398.7 24.7 409.3 12.3 414.7L0 420Z" fill="#222222"></path><path d="M0 600L12.3 597.3C24.7 594.7 49.3 589.3 74 584C98.7 578.7 123.3 573.3 148 565.3C172.7 557.3 197.3 546.7 221.8 554.8C246.3 563 270.7 590 295.2 608.8C319.7 627.7 344.3 638.3 369 635.5C393.7 632.7 418.3 616.3 443 602.8C467.7 589.3 492.3 578.7 517 581.5C541.7 584.3 566.3 600.7 591 608.8C615.7 617 640.3 617 664.8 614.2C689.3 611.3 713.7 605.7 738.2 605.7C762.7 605.7 787.3 611.3 812 606C836.7 600.7 861.3 584.3 886 581.5C910.7 578.7 935.3 589.3 947.7 594.7L960 600L960 517L947.7 514.3C935.3 511.7 910.7 506.3 886 511.8C861.3 517.3 836.7 533.7 812 536.3C787.3 539 762.7 528 738.2 525.3C713.7 522.7 689.3 528.3 664.8 533.8C640.3 539.3 615.7 544.7 591 539.2C566.3 533.7 541.7 517.3 517 511.8C492.3 506.3 467.7 511.7 443 525.2C418.3 538.7 393.7 560.3 369 563.2C344.3 566 319.7 550 295.2 531.2C270.7 512.3 246.3 490.7 221.8 485.2C197.3 479.7 172.7 490.3 148 495.7C123.3 501 98.7 501 74 503.7C49.3 506.3 24.7 511.7 12.3 514.3L0 517Z" fill="#272727"></path><path d="M0 779L12.3 776.2C24.7 773.3 49.3 767.7 74 756.8C98.7 746 123.3 730 148 722C172.7 714 197.3 714 221.8 724.8C246.3 735.7 270.7 757.3 295.2 768.2C319.7 779 344.3 779 369 779C393.7 779 418.3 779 443 765.5C467.7 752 492.3 725 517 719.5C541.7 714 566.3 730 591 746.2C615.7 762.3 640.3 778.7 664.8 781.3C689.3 784 713.7 773 738.2 764.8C762.7 756.7 787.3 751.3 812 743.3C836.7 735.3 861.3 724.7 886 730.2C910.7 735.7 935.3 757.3 947.7 768.2L960 779L960 598L947.7 592.7C935.3 587.3 910.7 576.7 886 579.5C861.3 582.3 836.7 598.7 812 604C787.3 609.3 762.7 603.7 738.2 603.7C713.7 603.7 689.3 609.3 664.8 612.2C640.3 615 615.7 615 591 606.8C566.3 598.7 541.7 582.3 517 579.5C492.3 576.7 467.7 587.3 443 600.8C418.3 614.3 393.7 630.7 369 633.5C344.3 636.3 319.7 625.7 295.2 606.8C270.7 588 246.3 561 221.8 552.8C197.3 544.7 172.7 555.3 148 563.3C123.3 571.3 98.7 576.7 74 582C49.3 587.3 24.7 592.7 12.3 595.3L0 598Z" fill="#272727"></path><path d="M0 860L12.3 857.2C24.7 854.3 49.3 848.7 74 837.8C98.7 827 123.3 811 148 808.3C172.7 805.7 197.3 816.3 221.8 827.2C246.3 838 270.7 849 295.2 857.2C319.7 865.3 344.3 870.7 369 870.7C393.7 870.7 418.3 865.3 443 851.8C467.7 838.3 492.3 816.7 517 811.2C541.7 805.7 566.3 816.3 591 829.8C615.7 843.3 640.3 859.7 664.8 865.2C689.3 870.7 713.7 865.3 738.2 862.7C762.7 860 787.3 860 812 851.8C836.7 843.7 861.3 827.3 886 827.3C910.7 827.3 935.3 843.7 947.7 851.8L960 860L960 777L947.7 766.2C935.3 755.3 910.7 733.7 886 728.2C861.3 722.7 836.7 733.3 812 741.3C787.3 749.3 762.7 754.7 738.2 762.8C713.7 771 689.3 782 664.8 779.3C640.3 776.7 615.7 760.3 591 744.2C566.3 728 541.7 712 517 717.5C492.3 723 467.7 750 443 763.5C418.3 777 393.7 777 369 777C344.3 777 319.7 777 295.2 766.2C270.7 755.3 246.3 733.7 221.8 722.8C197.3 712 172.7 712 148 720C123.3 728 98.7 744 74 754.8C49.3 765.7 24.7 771.3 12.3 774.2L0 777Z" fill="#222222"></path><path d="M0 1184L12.3 1192C24.7 1200 49.3 1216 74 1218.7C98.7 1221.3 123.3 1210.7 148 1189.2C172.7 1167.7 197.3 1135.3 221.8 1124.5C246.3 1113.7 270.7 1124.3 295.2 1145.8C319.7 1167.3 344.3 1199.7 369 1197C393.7 1194.3 418.3 1156.7 443 1143.2C467.7 1129.7 492.3 1140.3 517 1145.7C541.7 1151 566.3 1151 591 1151C615.7 1151 640.3 1151 664.8 1151C689.3 1151 713.7 1151 738.2 1156.5C762.7 1162 787.3 1173 812 1167.7C836.7 1162.3 861.3 1140.7 886 1143.3C910.7 1146 935.3 1173 947.7 1186.5L960 1200L960 858L947.7 849.8C935.3 841.7 910.7 825.3 886 825.3C861.3 825.3 836.7 841.7 812 849.8C787.3 858 762.7 858 738.2 860.7C713.7 863.3 689.3 868.7 664.8 863.2C640.3 857.7 615.7 841.3 591 827.8C566.3 814.3 541.7 803.7 517 809.2C492.3 814.7 467.7 836.3 443 849.8C418.3 863.3 393.7 868.7 369 868.7C344.3 868.7 319.7 863.3 295.2 855.2C270.7 847 246.3 836 221.8 825.2C197.3 814.3 172.7 803.7 148 806.3C123.3 809 98.7 825 74 835.8C49.3 846.7 24.7 852.3 12.3 855.2L0 858Z" fill="#191919"></path><path d="M0 1524L12.3 1524C24.7 1524 49.3 1524 74 1524C98.7 1524 123.3 1524 148 1526.7C172.7 1529.3 197.3 1534.7 221.8 1537.3C246.3 1540 270.7 1540 295.2 1540C319.7 1540 344.3 1540 369 1537.3C393.7 1534.7 418.3 1529.3 443 1529.3C467.7 1529.3 492.3 1534.7 517 1534.7C541.7 1534.7 566.3 1529.3 591 1526.7C615.7 1524 640.3 1524 664.8 1526.7C689.3 1529.3 713.7 1534.7 738.2 1534.7C762.7 1534.7 787.3 1529.3 812 1526.7C836.7 1524 861.3 1524 886 1526.7C910.7 1529.3 935.3 1534.7 947.7 1537.3L960 1540L960 1198L947.7 1184.5C935.3 1171 910.7 1144 886 1141.3C861.3 1138.7 836.7 1160.3 812 1165.7C787.3 1171 762.7 1160 738.2 1154.5C713.7 1149 689.3 1149 664.8 1149C640.3 1149 615.7 1149 591 1149C566.3 1149 541.7 1149 517 1143.7C492.3 1138.3 467.7 1127.7 443 1141.2C418.3 1154.7 393.7 1192.3 369 1195C344.3 1197.7 319.7 1165.3 295.2 1143.8C270.7 1122.3 246.3 1111.7 221.8 1122.5C197.3 1133.3 172.7 1165.7 148 1187.2C123.3 1208.7 98.7 1219.3 74 1216.7C49.3 1214 24.7 1198 12.3 1190L0 1182Z" fill="#0f0f0f"></path><path d="M0 1621L12.3 1621C24.7 1621 49.3 1621 74 1621C98.7 1621 123.3 1621 148 1621C172.7 1621 197.3 1621 221.8 1621C246.3 1621 270.7 1621 295.2 1621C319.7 1621 344.3 1621 369 1621C393.7 1621 418.3 1621 443 1621C467.7 1621 492.3 1621 517 1621C541.7 1621 566.3 1621 591 1621C615.7 1621 640.3 1621 664.8 1621C689.3 1621 713.7 1621 738.2 1621C762.7 1621 787.3 1621 812 1621C836.7 1621 861.3 1621 886 1621C910.7 1621 935.3 1621 947.7 1621L960 1621L960 1538L947.7 1535.3C935.3 1532.7 910.7 1527.3 886 1524.7C861.3 1522 836.7 1522 812 1524.7C787.3 1527.3 762.7 1532.7 738.2 1532.7C713.7 1532.7 689.3 1527.3 664.8 1524.7C640.3 1522 615.7 1522 591 1524.7C566.3 1527.3 541.7 1532.7 517 1532.7C492.3 1532.7 467.7 1527.3 443 1527.3C418.3 1527.3 393.7 1532.7 369 1535.3C344.3 1538 319.7 1538 295.2 1538C270.7 1538 246.3 1538 221.8 1535.3C197.3 1532.7 172.7 1527.3 148 1524.7C123.3 1522 98.7 1522 74 1522C49.3 1522 24.7 1522 12.3 1522L0 1522Z" fill="#000000"></path></svg>