<svg id="visual" viewBox="0 0 5760 1080" width="5760" height="1080" xmlns="http://www.w3.org/2000/svg" xmlns:xlink="http://www.w3.org/1999/xlink" version="1.1"><path d="M0 279L41.7 318C83.3 357 166.7 435 250.2 432.5C333.7 430 417.3 347 500.8 306.5C584.3 266 667.7 268 751.2 270.3C834.7 272.7 918.3 275.3 1001.8 355.3C1085.3 435.3 1168.7 592.7 1252.2 609.7C1335.7 626.7 1419.3 503.3 1502.8 416.3C1586.3 329.3 1669.7 278.7 1753 347.2C1836.3 415.7 1919.7 603.3 2003.2 668.2C2086.7 733 2170.3 675 2253.8 621.3C2337.3 567.7 2420.7 518.3 2504.2 481C2587.7 443.7 2671.3 418.3 2754.8 390.7C2838.3 363 2921.7 333 3005.2 375C3088.7 417 3172.3 531 3255.8 527C3339.3 523 3422.7 401 3506.2 386.5C3589.7 372 3673.3 465 3756.8 541.8C3840.3 618.7 3923.7 679.3 4007 678.8C4090.3 678.3 4173.7 616.7 4257.2 612.7C4340.7 608.7 4424.3 662.3 4507.8 608C4591.3 553.7 4674.7 391.3 4758.2 392.3C4841.7 393.3 4925.3 557.7 5008.8 557.5C5092.3 557.3 5175.7 392.7 5259.2 397.5C5342.7 402.3 5426.3 576.7 5509.8 650.5C5593.3 724.3 5676.7 697.7 5718.3 684.3L5760 671L5760 1081L5718.3 1081C5676.7 1081 5593.3 1081 5509.8 1081C5426.3 1081 5342.7 1081 5259.2 1081C5175.7 1081 5092.3 1081 5008.8 1081C4925.3 1081 4841.7 1081 4758.2 1081C4674.7 1081 4591.3 1081 4507.8 1081C4424.3 1081 4340.7 1081 4257.2 1081C4173.7 1081 4090.3 1081 4007 1081C3923.7 1081 3840.3 1081 3756.8 1081C3673.3 1081 3589.7 1081 3506.2 1081C3422.7 1081 3339.3 1081 3255.8 1081C3172.3 1081 3088.7 1081 3005.2 1081C2921.7 1081 2838.3 1081 2754.8 1081C2671.3 1081 2587.7 1081 2504.2 1081C2420.7 1081 2337.3 1081 2253.8 1081C2170.3 1081 2086.7 1081 2003.2 1081C1919.7 1081 1836.3 1081 1753 1081C1669.7 1081 1586.3 1081 1502.8 1081C1419.3 1081 1335.7 1081 1252.2 1081C1168.7 1081 1085.3 1081 1001.8 1081C918.3 1081 834.7 1081 751.2 1081C667.7 1081 584.3 1081 500.8 1081C417.3 1081 333.7 1081 250.2 1081C166.7 1081 83.3 1081 41.7 1081L0 1081Z" fill="#333333"></path></svg>