<svg id="visual" viewBox="0 0 5760 1080" width="5760" height="1080" xmlns="http://www.w3.org/2000/svg" xmlns:xlink="http://www.w3.org/1999/xlink" version="1.1"><path d="M0 811L41.7 789.2C83.3 767.3 166.7 723.7 250.2 719C333.7 714.3 417.3 748.7 500.8 746.5C584.3 744.3 667.7 705.7 751.2 701C834.7 696.3 918.3 725.7 1001.8 735.7C1085.3 745.7 1168.7 736.3 1252.2 739.3C1335.7 742.3 1419.3 757.7 1502.8 749.5C1586.3 741.3 1669.7 709.7 1753 697.3C1836.3 685 1919.7 692 2003.2 698.7C2086.7 705.3 2170.3 711.7 2253.8 719.8C2337.3 728 2420.7 738 2504.2 731.7C2587.7 725.3 2671.3 702.7 2754.8 719.2C2838.3 735.7 2921.7 791.3 3005.2 798.7C3088.7 806 3172.3 765 3255.8 739.3C3339.3 713.7 3422.7 703.3 3506.2 719.5C3589.7 735.7 3673.3 778.3 3756.8 777.5C3840.3 776.7 3923.7 732.3 4007 728.8C4090.3 725.3 4173.7 762.7 4257.2 766.8C4340.7 771 4424.3 742 4507.8 741C4591.3 740 4674.7 767 4758.2 785.5C4841.7 804 4925.3 814 5008.8 803C5092.3 792 5175.7 760 5259.2 745.2C5342.7 730.3 5426.3 732.7 5509.8 728.5C5593.3 724.3 5676.7 713.7 5718.3 708.3L5760 703L5760 1081L5718.3 1081C5676.7 1081 5593.3 1081 5509.8 1081C5426.3 1081 5342.7 1081 5259.2 1081C5175.7 1081 5092.3 1081 5008.8 1081C4925.3 1081 4841.7 1081 4758.2 1081C4674.7 1081 4591.3 1081 4507.8 1081C4424.3 1081 4340.7 1081 4257.2 1081C4173.7 1081 4090.3 1081 4007 1081C3923.7 1081 3840.3 1081 3756.8 1081C3673.3 1081 3589.7 1081 3506.2 1081C3422.7 1081 3339.3 1081 3255.8 1081C3172.3 1081 3088.7 1081 3005.2 1081C2921.7 1081 2838.3 1081 2754.8 1081C2671.3 1081 2587.7 1081 2504.2 1081C2420.7 1081 2337.3 1081 2253.8 1081C2170.3 1081 2086.7 1081 2003.2 1081C1919.7 1081 1836.3 1081 1753 1081C1669.7 1081 1586.3 1081 1502.8 1081C1419.3 1081 1335.7 1081 1252.2 1081C1168.7 1081 1085.3 1081 1001.8 1081C918.3 1081 834.7 1081 751.2 1081C667.7 1081 584.3 1081 500.8 1081C417.3 1081 333.7 1081 250.2 1081C166.7 1081 83.3 1081 41.7 1081L0 1081Z" fill="#171717"></path></svg>