<svg id="visual" viewBox="0 0 5760 1080" width="5760" height="1080" xmlns="http://www.w3.org/2000/svg" xmlns:xlink="http://www.w3.org/1999/xlink" version="1.1"><path d="M0 497L41.7 471.3C83.3 445.7 166.7 394.3 250.2 393.2C333.7 392 417.3 441 500.8 502.8C584.3 564.7 667.7 639.3 751.2 648.7C834.7 658 918.3 602 1001.8 541.8C1085.3 481.7 1168.7 417.3 1252.2 444.3C1335.7 471.3 1419.3 589.7 1502.8 614C1586.3 638.3 1669.7 568.7 1753 537.5C1836.3 506.3 1919.7 513.7 2003.2 538.2C2086.7 562.7 2170.3 604.3 2253.8 634.7C2337.3 665 2420.7 684 2504.2 636.5C2587.7 589 2671.3 475 2754.8 489.8C2838.3 504.7 2921.7 648.3 3005.2 655.8C3088.7 663.3 3172.3 534.7 3255.8 507.3C3339.3 480 3422.7 554 3506.2 619.2C3589.7 684.3 3673.3 740.7 3756.8 771.8C3840.3 803 3923.7 809 4007 795.8C4090.3 782.7 4173.7 750.3 4257.2 708.7C4340.7 667 4424.3 616 4507.8 574.2C4591.3 532.3 4674.7 499.7 4758.2 526.3C4841.7 553 4925.3 639 5008.8 622.7C5092.3 606.3 5175.7 487.7 5259.2 496.7C5342.7 505.7 5426.3 642.3 5509.8 706.7C5593.3 771 5676.7 763 5718.3 759L5760 755L5760 1081L5718.3 1081C5676.7 1081 5593.3 1081 5509.8 1081C5426.3 1081 5342.7 1081 5259.2 1081C5175.7 1081 5092.3 1081 5008.8 1081C4925.3 1081 4841.7 1081 4758.2 1081C4674.7 1081 4591.3 1081 4507.8 1081C4424.3 1081 4340.7 1081 4257.2 1081C4173.7 1081 4090.3 1081 4007 1081C3923.7 1081 3840.3 1081 3756.8 1081C3673.3 1081 3589.7 1081 3506.2 1081C3422.7 1081 3339.3 1081 3255.8 1081C3172.3 1081 3088.7 1081 3005.2 1081C2921.7 1081 2838.3 1081 2754.8 1081C2671.3 1081 2587.7 1081 2504.2 1081C2420.7 1081 2337.3 1081 2253.8 1081C2170.3 1081 2086.7 1081 2003.2 1081C1919.7 1081 1836.3 1081 1753 1081C1669.7 1081 1586.3 1081 1502.8 1081C1419.3 1081 1335.7 1081 1252.2 1081C1168.7 1081 1085.3 1081 1001.8 1081C918.3 1081 834.7 1081 751.2 1081C667.7 1081 584.3 1081 500.8 1081C417.3 1081 333.7 1081 250.2 1081C166.7 1081 83.3 1081 41.7 1081L0 1081Z" fill="#282828"></path></svg>