<svg id="visual" viewBox="0 0 5760 1080" width="5760" height="1080" xmlns="http://www.w3.org/2000/svg" xmlns:xlink="http://www.w3.org/1999/xlink" version="1.1"><path d="M0 935L41.7 922.2C83.3 909.3 166.7 883.7 250.2 878.2C333.7 872.7 417.3 887.3 500.8 904.3C584.3 921.3 667.7 940.7 751.2 932.8C834.7 925 918.3 890 1001.8 877.5C1085.3 865 1168.7 875 1252.2 887C1335.7 899 1419.3 913 1502.8 916.5C1586.3 920 1669.7 913 1753 905.7C1836.3 898.3 1919.7 890.7 2003.2 902.5C2086.7 914.3 2170.3 945.7 2253.8 959.5C2337.3 973.3 2420.7 969.7 2504.2 961.7C2587.7 953.7 2671.3 941.3 2754.8 925.2C2838.3 909 2921.7 889 3005.2 882.2C3088.7 875.3 3172.3 881.7 3255.8 891.7C3339.3 901.7 3422.7 915.3 3506.2 916.8C3589.7 918.3 3673.3 907.7 3756.8 904.5C3840.3 901.3 3923.7 905.7 4007 901.8C4090.3 898 4173.7 886 4257.2 897.3C4340.7 908.7 4424.3 943.3 4507.8 943.2C4591.3 943 4674.7 908 4758.2 888C4841.7 868 4925.3 863 5008.8 878C5092.3 893 5175.7 928 5259.2 928C5342.7 928 5426.3 893 5509.8 892.8C5593.3 892.7 5676.7 927.3 5718.3 944.7L5760 962L5760 1081L5718.3 1081C5676.7 1081 5593.3 1081 5509.8 1081C5426.3 1081 5342.7 1081 5259.2 1081C5175.7 1081 5092.3 1081 5008.8 1081C4925.3 1081 4841.7 1081 4758.2 1081C4674.7 1081 4591.3 1081 4507.8 1081C4424.3 1081 4340.7 1081 4257.2 1081C4173.7 1081 4090.3 1081 4007 1081C3923.7 1081 3840.3 1081 3756.8 1081C3673.3 1081 3589.7 1081 3506.2 1081C3422.7 1081 3339.3 1081 3255.8 1081C3172.3 1081 3088.7 1081 3005.2 1081C2921.7 1081 2838.3 1081 2754.8 1081C2671.3 1081 2587.7 1081 2504.2 1081C2420.7 1081 2337.3 1081 2253.8 1081C2170.3 1081 2086.7 1081 2003.2 1081C1919.7 1081 1836.3 1081 1753 1081C1669.7 1081 1586.3 1081 1502.8 1081C1419.3 1081 1335.7 1081 1252.2 1081C1168.7 1081 1085.3 1081 1001.8 1081C918.3 1081 834.7 1081 751.2 1081C667.7 1081 584.3 1081 500.8 1081C417.3 1081 333.7 1081 250.2 1081C166.7 1081 83.3 1081 41.7 1081L0 1081Z" fill="#101010"></path></svg>