<svg width="512" height="512" viewBox="0 0 512 512" fill="none" xmlns="http://www.w3.org/2000/svg">
<rect width="512" height="512" fill="white"/>
<rect width="512" height="512" fill="#262626"/>
<path d="M188.936 388L128.776 283.472H96.064V388H53.2V126.68H143.44C163.493 126.68 180.413 130.189 194.2 137.208C208.237 144.227 218.64 153.627 225.408 165.408C232.427 177.189 235.936 190.349 235.936 204.888C235.936 221.933 230.923 237.475 220.896 251.512C211.12 265.299 195.955 274.699 175.4 279.712L240.072 388H188.936ZM96.064 249.256H143.44C159.483 249.256 171.515 245.245 179.536 237.224C187.808 229.203 191.944 218.424 191.944 204.888C191.944 191.352 187.933 180.824 179.912 173.304C171.891 165.533 159.733 161.648 143.44 161.648H96.064V249.256ZM473.506 204.512C473.506 217.797 470.373 230.331 464.106 242.112C457.84 253.893 447.813 263.544 434.026 271.064C420.24 278.333 402.568 281.968 381.01 281.968H333.634V388H290.77V126.68H381.01C401.064 126.68 417.984 130.189 431.77 137.208C445.808 143.976 456.21 153.251 462.978 165.032C469.997 176.813 473.506 189.973 473.506 204.512ZM381.01 247C397.304 247 409.461 243.365 417.482 236.096C425.504 228.576 429.514 218.048 429.514 204.512C429.514 175.936 413.346 161.648 381.01 161.648H333.634V247H381.01Z" fill="white"/>
</svg>
