<svg id="visual" viewBox="0 0 960 540" width="960" height="540" xmlns="http://www.w3.org/2000/svg" xmlns:xlink="http://www.w3.org/1999/xlink" version="1.1"><path d="M0 258L22.8 244.5C45.7 231 91.3 204 137 200C182.7 196 228.3 215 274 228.3C319.7 241.7 365.3 249.3 411.2 240.2C457 231 503 205 548.8 203.2C594.7 201.3 640.3 223.7 686 236.5C731.7 249.3 777.3 252.7 823 254.7C868.7 256.7 914.3 257.3 937.2 257.7L960 258L960 0L937.2 0C914.3 0 868.7 0 823 0C777.3 0 731.7 0 686 0C640.3 0 594.7 0 548.8 0C503 0 457 0 411.2 0C365.3 0 319.7 0 274 0C228.3 0 182.7 0 137 0C91.3 0 45.7 0 22.8 0L0 0Z" fill="#333333"></path><path d="M0 183L22.8 176C45.7 169 91.3 155 137 157.3C182.7 159.7 228.3 178.3 274 176.3C319.7 174.3 365.3 151.7 411.2 143.3C457 135 503 141 548.8 145.3C594.7 149.7 640.3 152.3 686 151.7C731.7 151 777.3 147 823 149.5C868.7 152 914.3 161 937.2 165.5L960 170L960 0L937.2 0C914.3 0 868.7 0 823 0C777.3 0 731.7 0 686 0C640.3 0 594.7 0 548.8 0C503 0 457 0 411.2 0C365.3 0 319.7 0 274 0C228.3 0 182.7 0 137 0C91.3 0 45.7 0 22.8 0L0 0Z" fill="#2a2a2a"></path><path d="M0 148L22.8 146.2C45.7 144.3 91.3 140.7 137 134C182.7 127.3 228.3 117.7 274 113.5C319.7 109.3 365.3 110.7 411.2 115.8C457 121 503 130 548.8 127.8C594.7 125.7 640.3 112.3 686 114.5C731.7 116.7 777.3 134.3 823 144.5C868.7 154.7 914.3 157.3 937.2 158.7L960 160L960 0L937.2 0C914.3 0 868.7 0 823 0C777.3 0 731.7 0 686 0C640.3 0 594.7 0 548.8 0C503 0 457 0 411.2 0C365.3 0 319.7 0 274 0C228.3 0 182.7 0 137 0C91.3 0 45.7 0 22.8 0L0 0Z" fill="#212121"></path><path d="M0 60L22.8 67.5C45.7 75 91.3 90 137 97.3C182.7 104.7 228.3 104.3 274 101.2C319.7 98 365.3 92 411.2 87C457 82 503 78 548.8 83.8C594.7 89.7 640.3 105.3 686 107.7C731.7 110 777.3 99 823 92.3C868.7 85.7 914.3 83.3 937.2 82.2L960 81L960 0L937.2 0C914.3 0 868.7 0 823 0C777.3 0 731.7 0 686 0C640.3 0 594.7 0 548.8 0C503 0 457 0 411.2 0C365.3 0 319.7 0 274 0C228.3 0 182.7 0 137 0C91.3 0 45.7 0 22.8 0L0 0Z" fill="#191919"></path><path d="M0 34L22.8 39.2C45.7 44.3 91.3 54.7 137 57.2C182.7 59.7 228.3 54.3 274 48.5C319.7 42.7 365.3 36.3 411.2 32.8C457 29.3 503 28.7 548.8 33.7C594.7 38.7 640.3 49.3 686 51C731.7 52.7 777.3 45.3 823 48.3C868.7 51.3 914.3 64.7 937.2 71.3L960 78L960 0L937.2 0C914.3 0 868.7 0 823 0C777.3 0 731.7 0 686 0C640.3 0 594.7 0 548.8 0C503 0 457 0 411.2 0C365.3 0 319.7 0 274 0C228.3 0 182.7 0 137 0C91.3 0 45.7 0 22.8 0L0 0Z" fill="#101010"></path></svg>