<svg id="visual" viewBox="0 0 960 1620" width="960" height="1620" xmlns="http://www.w3.org/2000/svg" xmlns:xlink="http://www.w3.org/1999/xlink" version="1.1"><rect x="0" y="0" width="960" height="1620" fill="#111111"></rect><defs><linearGradient id="grad1_0" x1="0%" y1="100%" x2="100%" y2="0%"><stop offset="30%" stop-color="#282828" stop-opacity="1"></stop><stop offset="70%" stop-color="#282828" stop-opacity="1"></stop></linearGradient></defs><defs><linearGradient id="grad1_1" x1="0%" y1="100%" x2="100%" y2="0%"><stop offset="30%" stop-color="#282828" stop-opacity="1"></stop><stop offset="70%" stop-color="#202020" stop-opacity="1"></stop></linearGradient></defs><defs><linearGradient id="grad1_2" x1="0%" y1="100%" x2="100%" y2="0%"><stop offset="30%" stop-color="#191919" stop-opacity="1"></stop><stop offset="70%" stop-color="#202020" stop-opacity="1"></stop></linearGradient></defs><defs><linearGradient id="grad1_3" x1="0%" y1="100%" x2="100%" y2="0%"><stop offset="30%" stop-color="#191919" stop-opacity="1"></stop><stop offset="70%" stop-color="#111111" stop-opacity="1"></stop></linearGradient></defs><defs><linearGradient id="grad2_0" x1="0%" y1="100%" x2="100%" y2="0%"><stop offset="30%" stop-color="#282828" stop-opacity="1"></stop><stop offset="70%" stop-color="#282828" stop-opacity="1"></stop></linearGradient></defs><defs><linearGradient id="grad2_1" x1="0%" y1="100%" x2="100%" y2="0%"><stop offset="30%" stop-color="#202020" stop-opacity="1"></stop><stop offset="70%" stop-color="#282828" stop-opacity="1"></stop></linearGradient></defs><defs><linearGradient id="grad2_2" x1="0%" y1="100%" x2="100%" y2="0%"><stop offset="30%" stop-color="#202020" stop-opacity="1"></stop><stop offset="70%" stop-color="#191919" stop-opacity="1"></stop></linearGradient></defs><defs><linearGradient id="grad2_3" x1="0%" y1="100%" x2="100%" y2="0%"><stop offset="30%" stop-color="#111111" stop-opacity="1"></stop><stop offset="70%" stop-color="#191919" stop-opacity="1"></stop></linearGradient></defs><g transform="translate(960, 1620)"><path d="M-847.4 0C-848.2 -123.2 -849 -246.4 -782.9 -324.3C-716.8 -402.2 -583.9 -434.7 -497.8 -497.8C-411.7 -560.9 -372.5 -654.5 -297.3 -717.9C-222.2 -781.2 -111.1 -814.3 0 -847.4L0 0Z" fill="#151515"></path><path d="M-635.5 0C-636.1 -92.4 -636.7 -184.8 -587.2 -243.2C-537.6 -301.6 -437.9 -326 -373.4 -373.4C-308.8 -420.7 -279.4 -490.9 -223 -538.4C-166.6 -585.9 -83.3 -610.7 0 -635.5L0 0Z" fill="#1d1d1d"></path><path d="M-423.7 0C-424.1 -61.6 -424.5 -123.2 -391.4 -162.1C-358.4 -201.1 -291.9 -217.4 -248.9 -248.9C-205.9 -280.4 -186.3 -327.3 -148.7 -358.9C-111.1 -390.6 -55.5 -407.1 0 -423.7L0 0Z" fill="#242424"></path><path d="M-211.8 0C-212 -30.8 -212.2 -61.6 -195.7 -81.1C-179.2 -100.5 -146 -108.7 -124.5 -124.5C-102.9 -140.2 -93.1 -163.6 -74.3 -179.5C-55.5 -195.3 -27.8 -203.6 0 -211.8L0 0Z" fill="#282828"></path></g><g transform="translate(0, 0)"><path d="M847.4 0C767.4 81.7 687.4 163.3 658.7 272.9C630.1 382.4 652.8 519.8 599.2 599.2C545.6 678.6 415.7 700 303.1 731.7C190.5 763.4 95.3 805.4 0 847.4L0 0Z" fill="#151515"></path><path d="M635.5 0C575.5 61.2 515.5 122.5 494 204.6C472.6 286.8 489.6 389.8 449.4 449.4C409.2 509 311.8 525 227.3 548.8C142.9 572.6 71.4 604 0 635.5L0 0Z" fill="#1d1d1d"></path><path d="M423.7 0C383.7 40.8 343.7 81.7 329.4 136.4C315 191.2 326.4 259.9 299.6 299.6C272.8 339.3 207.8 350 151.5 365.9C95.3 381.7 47.6 402.7 0 423.7L0 0Z" fill="#242424"></path><path d="M211.8 0C191.8 20.4 171.8 40.8 164.7 68.2C157.5 95.6 163.2 129.9 149.8 149.8C136.4 169.7 103.9 175 75.8 182.9C47.6 190.9 23.8 201.3 0 211.8L0 0Z" fill="#282828"></path></g></svg>